<svg xmlns="http://www.w3.org/2000/svg" width="800" height="390" viewBox="0 0 800 390"><style>text{font-family:Arial,sans-serif;fill:#173f43}.label{font-size:17px;font-weight:bold}.small{font-size:14px;fill:#627475}.title{font-size:24px;font-weight:bold}</style><rect width="800" height="390" fill="#edf4ee"/><text x="35" y="42" class="title">Three views of the same place</text><rect x="30" y="78" width="220" height="220" rx="13" fill="white"/><rect x="290" y="78" width="220" height="220" rx="13" fill="white"/><rect x="550" y="78" width="220" height="220" rx="13" fill="white"/><path d="m70 118 43 12 47-12 46 12v88l-46-12-47 12-43-12Z" fill="#d9e9de" stroke="#aac8b6"/><circle cx="142" cy="160" r="18" fill="#1c746b"/><circle cx="142" cy="160" r="6" fill="white"/><text x="91" y="256" class="label">Map coverage</text><path d="M323 206h150M331 206v-56h25v56m17 0v-92h25v92m17 0v-72h25v72" stroke="#1c746b" stroke-width="8" fill="none"/><text x="324" y="256" class="label">Service operation</text><path d="M590 117h140v76h-66l-24 26v-26h-50Z" fill="#deebdf"/><path d="M614 141h93m-93 22h63" stroke="#658e7d" stroke-width="6"/><text x="593" y="256" class="label">User experience</text><text x="262" y="178" font-size="25">+</text><text x="522" y="178" font-size="25">+</text><text x="157" y="348" class="label">Compare the same area, station IDs and time period.</text></svg>